<mxfile host="app.diagrams.net" agent="Mozilla/5.0 (X11; Linux x86_64) AppleWebKit/537.36 (KHTML, like Gecko) Chrome/138.0.0.0 Safari/537.36" version="28.1.2">
  <diagram id="d78uskSR8lrtHpOCPWVp" name="Страница — 1">
    <mxGraphModel dx="1241" dy="437" grid="1" gridSize="10" guides="1" tooltips="1" connect="1" arrows="1" fold="1" page="1" pageScale="1" pageWidth="827" pageHeight="1169" math="0" shadow="0">
      <root>
        <mxCell id="0" />
        <mxCell id="1" parent="0" />
        <mxCell id="ZDNwDyZvf8P_KJrOBuUn-30" style="edgeStyle=orthogonalEdgeStyle;rounded=0;orthogonalLoop=1;jettySize=auto;html=1;entryX=0.5;entryY=1;entryDx=0;entryDy=0;" edge="1" parent="1" source="ZDNwDyZvf8P_KJrOBuUn-2" target="ZDNwDyZvf8P_KJrOBuUn-29">
          <mxGeometry relative="1" as="geometry" />
        </mxCell>
        <mxCell id="ZDNwDyZvf8P_KJrOBuUn-31" value="Маркетинговые материалы&lt;br&gt;Проведением платежей и открытием текущих счетов" style="edgeLabel;html=1;align=center;verticalAlign=middle;resizable=0;points=[];" vertex="1" connectable="0" parent="ZDNwDyZvf8P_KJrOBuUn-30">
          <mxGeometry x="-0.0105" y="2" relative="1" as="geometry">
            <mxPoint x="-1" as="offset" />
          </mxGeometry>
        </mxCell>
        <mxCell id="ZDNwDyZvf8P_KJrOBuUn-2" value="Клиент" style="shape=umlActor;verticalLabelPosition=bottom;verticalAlign=top;html=1;outlineConnect=0;" vertex="1" parent="1">
          <mxGeometry x="654" y="480" width="30" height="60" as="geometry" />
        </mxCell>
        <mxCell id="ZDNwDyZvf8P_KJrOBuUn-22" style="edgeStyle=orthogonalEdgeStyle;rounded=0;orthogonalLoop=1;jettySize=auto;html=1;entryX=0;entryY=0.5;entryDx=0;entryDy=0;" edge="1" parent="1" source="ZDNwDyZvf8P_KJrOBuUn-4" target="ZDNwDyZvf8P_KJrOBuUn-20">
          <mxGeometry relative="1" as="geometry" />
        </mxCell>
        <mxCell id="ZDNwDyZvf8P_KJrOBuUn-24" value="Работа с обращениями" style="edgeLabel;html=1;align=center;verticalAlign=middle;resizable=0;points=[];" vertex="1" connectable="0" parent="ZDNwDyZvf8P_KJrOBuUn-22">
          <mxGeometry x="-0.2605" y="4" relative="1" as="geometry">
            <mxPoint x="17" y="4" as="offset" />
          </mxGeometry>
        </mxCell>
        <mxCell id="ZDNwDyZvf8P_KJrOBuUn-4" value="Сотрудник кол-центра" style="shape=umlActor;verticalLabelPosition=bottom;verticalAlign=top;html=1;outlineConnect=0;" vertex="1" parent="1">
          <mxGeometry x="60" y="90" width="30" height="60" as="geometry" />
        </mxCell>
        <mxCell id="ZDNwDyZvf8P_KJrOBuUn-41" style="edgeStyle=orthogonalEdgeStyle;rounded=0;orthogonalLoop=1;jettySize=auto;html=1;entryX=0;entryY=0.5;entryDx=0;entryDy=0;" edge="1" parent="1" source="ZDNwDyZvf8P_KJrOBuUn-15" target="ZDNwDyZvf8P_KJrOBuUn-40">
          <mxGeometry relative="1" as="geometry">
            <Array as="points">
              <mxPoint x="220" y="240" />
              <mxPoint x="220" y="190" />
            </Array>
          </mxGeometry>
        </mxCell>
        <mxCell id="ZDNwDyZvf8P_KJrOBuUn-42" value="Расчёт ставок" style="edgeLabel;html=1;align=center;verticalAlign=middle;resizable=0;points=[];" vertex="1" connectable="0" parent="ZDNwDyZvf8P_KJrOBuUn-41">
          <mxGeometry x="-0.2921" relative="1" as="geometry">
            <mxPoint as="offset" />
          </mxGeometry>
        </mxCell>
        <mxCell id="ZDNwDyZvf8P_KJrOBuUn-15" value="Сотрудник&amp;nbsp;&lt;div&gt;фронт-офис&lt;span style=&quot;background-color: transparent; color: light-dark(rgb(0, 0, 0), rgb(255, 255, 255));&quot;&gt;а&lt;/span&gt;&lt;/div&gt;" style="shape=umlActor;verticalLabelPosition=bottom;verticalAlign=top;html=1;outlineConnect=0;" vertex="1" parent="1">
          <mxGeometry x="60" y="210" width="30" height="60" as="geometry" />
        </mxCell>
        <mxCell id="ZDNwDyZvf8P_KJrOBuUn-26" style="edgeStyle=orthogonalEdgeStyle;rounded=0;orthogonalLoop=1;jettySize=auto;html=1;entryX=0;entryY=0.5;entryDx=0;entryDy=0;" edge="1" parent="1" source="ZDNwDyZvf8P_KJrOBuUn-19" target="ZDNwDyZvf8P_KJrOBuUn-21">
          <mxGeometry relative="1" as="geometry">
            <Array as="points">
              <mxPoint x="75" y="430" />
              <mxPoint x="370" y="430" />
              <mxPoint x="370" y="260" />
            </Array>
          </mxGeometry>
        </mxCell>
        <mxCell id="ZDNwDyZvf8P_KJrOBuUn-28" value="Обрабатывает заявки" style="edgeLabel;html=1;align=center;verticalAlign=middle;resizable=0;points=[];" vertex="1" connectable="0" parent="ZDNwDyZvf8P_KJrOBuUn-26">
          <mxGeometry x="-0.5739" y="3" relative="1" as="geometry">
            <mxPoint x="64" y="3" as="offset" />
          </mxGeometry>
        </mxCell>
        <mxCell id="ZDNwDyZvf8P_KJrOBuUn-19" value="Сотрудник&amp;nbsp;&lt;span style=&quot;background-color: transparent; color: light-dark(rgb(0, 0, 0), rgb(255, 255, 255));&quot;&gt;бэк-офиса&lt;/span&gt;&lt;span style=&quot;background-color: transparent;&quot;&gt;&lt;br&gt;(отдел депозитов)&lt;/span&gt;" style="shape=umlActor;verticalLabelPosition=bottom;verticalAlign=top;html=1;outlineConnect=0;" vertex="1" parent="1">
          <mxGeometry x="60" y="470" width="30" height="60" as="geometry" />
        </mxCell>
        <mxCell id="ZDNwDyZvf8P_KJrOBuUn-38" style="edgeStyle=orthogonalEdgeStyle;rounded=0;orthogonalLoop=1;jettySize=auto;html=1;entryX=0.5;entryY=0;entryDx=0;entryDy=0;" edge="1" parent="1" source="ZDNwDyZvf8P_KJrOBuUn-20" target="ZDNwDyZvf8P_KJrOBuUn-21">
          <mxGeometry relative="1" as="geometry" />
        </mxCell>
        <mxCell id="ZDNwDyZvf8P_KJrOBuUn-39" value="Передача обращений" style="edgeLabel;html=1;align=center;verticalAlign=middle;resizable=0;points=[];" vertex="1" connectable="0" parent="ZDNwDyZvf8P_KJrOBuUn-38">
          <mxGeometry x="0.0071" y="-2" relative="1" as="geometry">
            <mxPoint as="offset" />
          </mxGeometry>
        </mxCell>
        <mxCell id="ZDNwDyZvf8P_KJrOBuUn-20" value="Система&lt;div&gt;кол-центра&lt;/div&gt;" style="rounded=0;whiteSpace=wrap;html=1;" vertex="1" parent="1">
          <mxGeometry x="450" y="90" width="120" height="60" as="geometry" />
        </mxCell>
        <mxCell id="ZDNwDyZvf8P_KJrOBuUn-21" value="АБС" style="rounded=0;whiteSpace=wrap;html=1;" vertex="1" parent="1">
          <mxGeometry x="450" y="230" width="120" height="60" as="geometry" />
        </mxCell>
        <mxCell id="ZDNwDyZvf8P_KJrOBuUn-29" value="Сайт" style="rounded=0;whiteSpace=wrap;html=1;" vertex="1" parent="1">
          <mxGeometry x="610" y="360" width="120" height="60" as="geometry" />
        </mxCell>
        <mxCell id="ZDNwDyZvf8P_KJrOBuUn-35" style="edgeStyle=orthogonalEdgeStyle;rounded=0;orthogonalLoop=1;jettySize=auto;html=1;entryX=0.5;entryY=1;entryDx=0;entryDy=0;" edge="1" parent="1" source="ZDNwDyZvf8P_KJrOBuUn-32" target="ZDNwDyZvf8P_KJrOBuUn-21">
          <mxGeometry relative="1" as="geometry" />
        </mxCell>
        <mxCell id="ZDNwDyZvf8P_KJrOBuUn-36" value="Анализирует кредитные риски банка" style="edgeLabel;html=1;align=center;verticalAlign=middle;resizable=0;points=[];" vertex="1" connectable="0" parent="ZDNwDyZvf8P_KJrOBuUn-35">
          <mxGeometry x="-0.5007" relative="1" as="geometry">
            <mxPoint x="48" as="offset" />
          </mxGeometry>
        </mxCell>
        <mxCell id="ZDNwDyZvf8P_KJrOBuUn-32" value="Сотрудник бэк-офиса&lt;div&gt;&amp;nbsp;(отдел кредитования)&lt;/div&gt;" style="shape=umlActor;verticalLabelPosition=bottom;verticalAlign=top;html=1;outlineConnect=0;" vertex="1" parent="1">
          <mxGeometry x="60" y="590" width="30" height="60" as="geometry" />
        </mxCell>
        <mxCell id="ZDNwDyZvf8P_KJrOBuUn-40" value="Excel" style="rounded=0;whiteSpace=wrap;html=1;" vertex="1" parent="1">
          <mxGeometry x="250" y="160" width="120" height="60" as="geometry" />
        </mxCell>
        <mxCell id="ZDNwDyZvf8P_KJrOBuUn-44" style="edgeStyle=orthogonalEdgeStyle;rounded=0;orthogonalLoop=1;jettySize=auto;html=1;entryX=1;entryY=0.37;entryDx=0;entryDy=0;entryPerimeter=0;exitX=0.5;exitY=0;exitDx=0;exitDy=0;" edge="1" parent="1" source="ZDNwDyZvf8P_KJrOBuUn-29" target="ZDNwDyZvf8P_KJrOBuUn-21">
          <mxGeometry relative="1" as="geometry" />
        </mxCell>
        <mxCell id="ZDNwDyZvf8P_KJrOBuUn-45" value="Проведением платежей и открытием текущих счетов" style="edgeLabel;html=1;align=center;verticalAlign=middle;resizable=0;points=[];" vertex="1" connectable="0" parent="ZDNwDyZvf8P_KJrOBuUn-44">
          <mxGeometry x="-0.4206" y="2" relative="1" as="geometry">
            <mxPoint x="1" y="10" as="offset" />
          </mxGeometry>
        </mxCell>
      </root>
    </mxGraphModel>
  </diagram>
</mxfile>
